<mxfile host="app.diagrams.net" modified="2023-09-15T08:06:47.274Z" agent="Mozilla/5.0 (X11; Linux x86_64) AppleWebKit/537.36 (KHTML, like Gecko) Chrome/117.0.0.0 Safari/537.36" etag="cDvltrwgI3gRHrvE9DaN" version="21.7.5" type="github">
  <diagram name="Page-1" id="aCiQO6UszsXGfQdciSwg">
    <mxGraphModel dx="818" dy="624" grid="1" gridSize="10" guides="1" tooltips="1" connect="1" arrows="1" fold="1" page="1" pageScale="1" pageWidth="850" pageHeight="1100" math="0" shadow="0">
      <root>
        <mxCell id="0" />
        <mxCell id="1" parent="0" />
        <mxCell id="0l53LQ4JQti2SCicIk5T-1" value="&lt;h1&gt;PERSONS&#39; RECORD MANAGEMENT API&lt;/h1&gt;" style="text;html=1;strokeColor=none;fillColor=none;spacing=5;spacingTop=-20;whiteSpace=wrap;overflow=hidden;rounded=0;" parent="1" vertex="1">
          <mxGeometry x="180" y="10" width="490" height="40" as="geometry" />
        </mxCell>
        <mxCell id="0l53LQ4JQti2SCicIk5T-87" value="" style="group" parent="1" vertex="1" connectable="0">
          <mxGeometry x="69" y="74" width="743" height="829" as="geometry" />
        </mxCell>
        <mxCell id="0l53LQ4JQti2SCicIk5T-2" value="&lt;b style=&quot;font-size: 16px;&quot;&gt;PROJECT STRUCTURE&lt;/b&gt;" style="text;html=1;strokeColor=none;fillColor=none;align=center;verticalAlign=middle;whiteSpace=wrap;rounded=0;fontSize=16;" parent="0l53LQ4JQti2SCicIk5T-87" vertex="1">
          <mxGeometry x="291" width="230" height="40" as="geometry" />
        </mxCell>
        <mxCell id="0l53LQ4JQti2SCicIk5T-33" value="" style="group;fontStyle=4" parent="0l53LQ4JQti2SCicIk5T-87" vertex="1" connectable="0">
          <mxGeometry x="11" y="56" width="732" height="240" as="geometry" />
        </mxCell>
        <mxCell id="0l53LQ4JQti2SCicIk5T-4" value="&lt;font style=&quot;font-size: 17px;&quot;&gt;&lt;b&gt;cmd&lt;/b&gt;&lt;/font&gt;" style="rounded=1;whiteSpace=wrap;html=1;" parent="0l53LQ4JQti2SCicIk5T-33" vertex="1">
          <mxGeometry width="100" height="50" as="geometry" />
        </mxCell>
        <mxCell id="0l53LQ4JQti2SCicIk5T-6" value="MAIN" style="rounded=1;whiteSpace=wrap;html=1;" parent="0l53LQ4JQti2SCicIk5T-33" vertex="1">
          <mxGeometry y="100" width="100" height="50" as="geometry" />
        </mxCell>
        <mxCell id="0l53LQ4JQti2SCicIk5T-30" value="" style="edgeStyle=orthogonalEdgeStyle;rounded=0;orthogonalLoop=1;jettySize=auto;html=1;" parent="0l53LQ4JQti2SCicIk5T-33" source="0l53LQ4JQti2SCicIk5T-4" target="0l53LQ4JQti2SCicIk5T-6" edge="1">
          <mxGeometry relative="1" as="geometry" />
        </mxCell>
        <mxCell id="0l53LQ4JQti2SCicIk5T-7" value="Main.go" style="rounded=1;whiteSpace=wrap;html=1;" parent="0l53LQ4JQti2SCicIk5T-33" vertex="1">
          <mxGeometry y="190" width="100" height="50" as="geometry" />
        </mxCell>
        <mxCell id="0l53LQ4JQti2SCicIk5T-31" value="" style="edgeStyle=orthogonalEdgeStyle;rounded=0;orthogonalLoop=1;jettySize=auto;html=1;" parent="0l53LQ4JQti2SCicIk5T-33" source="0l53LQ4JQti2SCicIk5T-6" target="0l53LQ4JQti2SCicIk5T-7" edge="1">
          <mxGeometry relative="1" as="geometry" />
        </mxCell>
        <mxCell id="0l53LQ4JQti2SCicIk5T-32" value="" style="group" parent="0l53LQ4JQti2SCicIk5T-33" vertex="1" connectable="0">
          <mxGeometry x="147" width="585" height="240" as="geometry" />
        </mxCell>
        <mxCell id="0l53LQ4JQti2SCicIk5T-8" value="&lt;font style=&quot;font-size: 19px;&quot;&gt;&lt;b&gt;pkg&lt;/b&gt;&lt;/font&gt;" style="rounded=1;whiteSpace=wrap;html=1;" parent="0l53LQ4JQti2SCicIk5T-32" vertex="1">
          <mxGeometry x="217" width="100" height="50" as="geometry" />
        </mxCell>
        <mxCell id="0l53LQ4JQti2SCicIk5T-9" value="controllers" style="rounded=1;whiteSpace=wrap;html=1;" parent="0l53LQ4JQti2SCicIk5T-32" vertex="1">
          <mxGeometry x="5" y="100" width="100" height="50" as="geometry" />
        </mxCell>
        <mxCell id="0l53LQ4JQti2SCicIk5T-10" value="models" style="rounded=1;whiteSpace=wrap;html=1;" parent="0l53LQ4JQti2SCicIk5T-32" vertex="1">
          <mxGeometry x="175" y="100" width="100" height="50" as="geometry" />
        </mxCell>
        <mxCell id="0l53LQ4JQti2SCicIk5T-11" value="routes" style="rounded=1;whiteSpace=wrap;html=1;" parent="0l53LQ4JQti2SCicIk5T-32" vertex="1">
          <mxGeometry x="345" y="100" width="100" height="50" as="geometry" />
        </mxCell>
        <mxCell id="0l53LQ4JQti2SCicIk5T-12" value="utils" style="rounded=1;whiteSpace=wrap;html=1;" parent="0l53LQ4JQti2SCicIk5T-32" vertex="1">
          <mxGeometry x="485" y="100" width="100" height="50" as="geometry" />
        </mxCell>
        <mxCell id="0l53LQ4JQti2SCicIk5T-13" value="person-controller.go" style="rounded=1;whiteSpace=wrap;html=1;" parent="0l53LQ4JQti2SCicIk5T-32" vertex="1">
          <mxGeometry y="190" width="110" height="50" as="geometry" />
        </mxCell>
        <mxCell id="0l53LQ4JQti2SCicIk5T-21" value="" style="edgeStyle=orthogonalEdgeStyle;rounded=0;orthogonalLoop=1;jettySize=auto;html=1;" parent="0l53LQ4JQti2SCicIk5T-32" source="0l53LQ4JQti2SCicIk5T-9" target="0l53LQ4JQti2SCicIk5T-13" edge="1">
          <mxGeometry relative="1" as="geometry" />
        </mxCell>
        <mxCell id="0l53LQ4JQti2SCicIk5T-14" value="person.go" style="rounded=1;whiteSpace=wrap;html=1;" parent="0l53LQ4JQti2SCicIk5T-32" vertex="1">
          <mxGeometry x="175" y="190" width="100" height="50" as="geometry" />
        </mxCell>
        <mxCell id="0l53LQ4JQti2SCicIk5T-22" value="" style="edgeStyle=orthogonalEdgeStyle;rounded=0;orthogonalLoop=1;jettySize=auto;html=1;" parent="0l53LQ4JQti2SCicIk5T-32" source="0l53LQ4JQti2SCicIk5T-10" target="0l53LQ4JQti2SCicIk5T-14" edge="1">
          <mxGeometry relative="1" as="geometry" />
        </mxCell>
        <mxCell id="0l53LQ4JQti2SCicIk5T-15" value="person-route.go" style="rounded=1;whiteSpace=wrap;html=1;" parent="0l53LQ4JQti2SCicIk5T-32" vertex="1">
          <mxGeometry x="345" y="190" width="100" height="50" as="geometry" />
        </mxCell>
        <mxCell id="0l53LQ4JQti2SCicIk5T-23" value="" style="edgeStyle=orthogonalEdgeStyle;rounded=0;orthogonalLoop=1;jettySize=auto;html=1;" parent="0l53LQ4JQti2SCicIk5T-32" source="0l53LQ4JQti2SCicIk5T-11" target="0l53LQ4JQti2SCicIk5T-15" edge="1">
          <mxGeometry relative="1" as="geometry" />
        </mxCell>
        <mxCell id="0l53LQ4JQti2SCicIk5T-16" value="util.go" style="rounded=1;whiteSpace=wrap;html=1;" parent="0l53LQ4JQti2SCicIk5T-32" vertex="1">
          <mxGeometry x="485" y="190" width="100" height="50" as="geometry" />
        </mxCell>
        <mxCell id="0l53LQ4JQti2SCicIk5T-24" value="" style="edgeStyle=orthogonalEdgeStyle;rounded=0;orthogonalLoop=1;jettySize=auto;html=1;" parent="0l53LQ4JQti2SCicIk5T-32" source="0l53LQ4JQti2SCicIk5T-12" target="0l53LQ4JQti2SCicIk5T-16" edge="1">
          <mxGeometry relative="1" as="geometry" />
        </mxCell>
        <mxCell id="0l53LQ4JQti2SCicIk5T-26" value="" style="endArrow=classic;html=1;rounded=0;entryX=0.5;entryY=0;entryDx=0;entryDy=0;exitX=0;exitY=0.5;exitDx=0;exitDy=0;" parent="0l53LQ4JQti2SCicIk5T-32" source="0l53LQ4JQti2SCicIk5T-8" target="0l53LQ4JQti2SCicIk5T-9" edge="1">
          <mxGeometry width="50" height="50" relative="1" as="geometry">
            <mxPoint x="105" y="70" as="sourcePoint" />
            <mxPoint x="155" y="20" as="targetPoint" />
            <Array as="points">
              <mxPoint x="55" y="25" />
            </Array>
          </mxGeometry>
        </mxCell>
        <mxCell id="0l53LQ4JQti2SCicIk5T-27" value="" style="endArrow=classic;html=1;rounded=0;" parent="0l53LQ4JQti2SCicIk5T-32" edge="1">
          <mxGeometry width="50" height="50" relative="1" as="geometry">
            <mxPoint x="235" y="51" as="sourcePoint" />
            <mxPoint x="235" y="101" as="targetPoint" />
          </mxGeometry>
        </mxCell>
        <mxCell id="0l53LQ4JQti2SCicIk5T-28" value="" style="endArrow=classic;html=1;rounded=0;entryX=0.5;entryY=0;entryDx=0;entryDy=0;" parent="0l53LQ4JQti2SCicIk5T-32" target="0l53LQ4JQti2SCicIk5T-11" edge="1">
          <mxGeometry width="50" height="50" relative="1" as="geometry">
            <mxPoint x="317" y="30" as="sourcePoint" />
            <mxPoint x="367" y="-20" as="targetPoint" />
            <Array as="points">
              <mxPoint x="395" y="30" />
            </Array>
          </mxGeometry>
        </mxCell>
        <mxCell id="0l53LQ4JQti2SCicIk5T-29" value="" style="endArrow=classic;html=1;rounded=0;entryX=0.5;entryY=0;entryDx=0;entryDy=0;" parent="0l53LQ4JQti2SCicIk5T-32" target="0l53LQ4JQti2SCicIk5T-12" edge="1">
          <mxGeometry width="50" height="50" relative="1" as="geometry">
            <mxPoint x="395" y="30" as="sourcePoint" />
            <mxPoint x="445" y="-20" as="targetPoint" />
            <Array as="points">
              <mxPoint x="535" y="30" />
            </Array>
          </mxGeometry>
        </mxCell>
        <mxCell id="0l53LQ4JQti2SCicIk5T-34" value="&lt;h1 style=&quot;font-size: 20px;&quot;&gt;ROUTES&lt;/h1&gt;" style="text;html=1;strokeColor=none;fillColor=none;spacing=5;spacingTop=-20;whiteSpace=wrap;overflow=hidden;rounded=0;" parent="0l53LQ4JQti2SCicIk5T-87" vertex="1">
          <mxGeometry x="507" y="350" width="100" height="40" as="geometry" />
        </mxCell>
        <mxCell id="0l53LQ4JQti2SCicIk5T-35" value="POST" style="rounded=1;whiteSpace=wrap;html=1;" parent="0l53LQ4JQti2SCicIk5T-87" vertex="1">
          <mxGeometry x="355" y="430" width="100" height="50" as="geometry" />
        </mxCell>
        <mxCell id="0l53LQ4JQti2SCicIk5T-36" value="&lt;b&gt;METHODS&lt;/b&gt;" style="text;html=1;strokeColor=none;fillColor=none;align=center;verticalAlign=middle;whiteSpace=wrap;rounded=0;" parent="0l53LQ4JQti2SCicIk5T-87" vertex="1">
          <mxGeometry x="375" y="400" width="60" height="30" as="geometry" />
        </mxCell>
        <mxCell id="0l53LQ4JQti2SCicIk5T-37" value="/api" style="rounded=1;whiteSpace=wrap;html=1;" parent="0l53LQ4JQti2SCicIk5T-87" vertex="1">
          <mxGeometry x="499" y="430" width="100" height="50" as="geometry" />
        </mxCell>
        <mxCell id="0l53LQ4JQti2SCicIk5T-66" value="" style="edgeStyle=orthogonalEdgeStyle;rounded=0;orthogonalLoop=1;jettySize=auto;html=1;" parent="0l53LQ4JQti2SCicIk5T-87" source="0l53LQ4JQti2SCicIk5T-35" target="0l53LQ4JQti2SCicIk5T-37" edge="1">
          <mxGeometry relative="1" as="geometry" />
        </mxCell>
        <mxCell id="0l53LQ4JQti2SCicIk5T-38" value="CreateUser" style="rounded=1;whiteSpace=wrap;html=1;" parent="0l53LQ4JQti2SCicIk5T-87" vertex="1">
          <mxGeometry x="640" y="430" width="100" height="50" as="geometry" />
        </mxCell>
        <mxCell id="0l53LQ4JQti2SCicIk5T-67" value="" style="edgeStyle=orthogonalEdgeStyle;rounded=0;orthogonalLoop=1;jettySize=auto;html=1;" parent="0l53LQ4JQti2SCicIk5T-87" source="0l53LQ4JQti2SCicIk5T-37" target="0l53LQ4JQti2SCicIk5T-38" edge="1">
          <mxGeometry relative="1" as="geometry" />
        </mxCell>
        <mxCell id="0l53LQ4JQti2SCicIk5T-39" value="GET" style="rounded=1;whiteSpace=wrap;html=1;" parent="0l53LQ4JQti2SCicIk5T-87" vertex="1">
          <mxGeometry x="356" y="509" width="100" height="50" as="geometry" />
        </mxCell>
        <mxCell id="0l53LQ4JQti2SCicIk5T-40" value="/api" style="rounded=1;whiteSpace=wrap;html=1;" parent="0l53LQ4JQti2SCicIk5T-87" vertex="1">
          <mxGeometry x="499" y="509" width="100" height="50" as="geometry" />
        </mxCell>
        <mxCell id="0l53LQ4JQti2SCicIk5T-58" value="" style="edgeStyle=orthogonalEdgeStyle;rounded=0;orthogonalLoop=1;jettySize=auto;html=1;" parent="0l53LQ4JQti2SCicIk5T-87" source="0l53LQ4JQti2SCicIk5T-39" target="0l53LQ4JQti2SCicIk5T-40" edge="1">
          <mxGeometry relative="1" as="geometry" />
        </mxCell>
        <mxCell id="0l53LQ4JQti2SCicIk5T-41" value="GetUsers" style="rounded=1;whiteSpace=wrap;html=1;" parent="0l53LQ4JQti2SCicIk5T-87" vertex="1">
          <mxGeometry x="642" y="509" width="100" height="50" as="geometry" />
        </mxCell>
        <mxCell id="0l53LQ4JQti2SCicIk5T-57" value="" style="edgeStyle=orthogonalEdgeStyle;rounded=0;orthogonalLoop=1;jettySize=auto;html=1;" parent="0l53LQ4JQti2SCicIk5T-87" source="0l53LQ4JQti2SCicIk5T-40" target="0l53LQ4JQti2SCicIk5T-41" edge="1">
          <mxGeometry relative="1" as="geometry" />
        </mxCell>
        <mxCell id="0l53LQ4JQti2SCicIk5T-42" value="GET" style="rounded=1;whiteSpace=wrap;html=1;" parent="0l53LQ4JQti2SCicIk5T-87" vertex="1">
          <mxGeometry x="356" y="609" width="100" height="50" as="geometry" />
        </mxCell>
        <mxCell id="0l53LQ4JQti2SCicIk5T-43" value="/api/{user_id}" style="rounded=1;whiteSpace=wrap;html=1;" parent="0l53LQ4JQti2SCicIk5T-87" vertex="1">
          <mxGeometry x="499" y="609" width="100" height="50" as="geometry" />
        </mxCell>
        <mxCell id="0l53LQ4JQti2SCicIk5T-59" value="" style="edgeStyle=orthogonalEdgeStyle;rounded=0;orthogonalLoop=1;jettySize=auto;html=1;" parent="0l53LQ4JQti2SCicIk5T-87" source="0l53LQ4JQti2SCicIk5T-42" target="0l53LQ4JQti2SCicIk5T-43" edge="1">
          <mxGeometry relative="1" as="geometry" />
        </mxCell>
        <mxCell id="0l53LQ4JQti2SCicIk5T-44" value="GetUserById" style="rounded=1;whiteSpace=wrap;html=1;" parent="0l53LQ4JQti2SCicIk5T-87" vertex="1">
          <mxGeometry x="642" y="609" width="100" height="50" as="geometry" />
        </mxCell>
        <mxCell id="0l53LQ4JQti2SCicIk5T-60" value="" style="edgeStyle=orthogonalEdgeStyle;rounded=0;orthogonalLoop=1;jettySize=auto;html=1;" parent="0l53LQ4JQti2SCicIk5T-87" source="0l53LQ4JQti2SCicIk5T-43" target="0l53LQ4JQti2SCicIk5T-44" edge="1">
          <mxGeometry relative="1" as="geometry" />
        </mxCell>
        <mxCell id="0l53LQ4JQti2SCicIk5T-45" value="PUT" style="rounded=1;whiteSpace=wrap;html=1;" parent="0l53LQ4JQti2SCicIk5T-87" vertex="1">
          <mxGeometry x="356" y="699" width="100" height="50" as="geometry" />
        </mxCell>
        <mxCell id="0l53LQ4JQti2SCicIk5T-46" value="DELETE" style="rounded=1;whiteSpace=wrap;html=1;" parent="0l53LQ4JQti2SCicIk5T-87" vertex="1">
          <mxGeometry x="356" y="779" width="100" height="50" as="geometry" />
        </mxCell>
        <mxCell id="0l53LQ4JQti2SCicIk5T-47" value="/api/{user_Id}" style="rounded=1;whiteSpace=wrap;html=1;" parent="0l53LQ4JQti2SCicIk5T-87" vertex="1">
          <mxGeometry x="499" y="699" width="100" height="50" as="geometry" />
        </mxCell>
        <mxCell id="0l53LQ4JQti2SCicIk5T-61" value="" style="edgeStyle=orthogonalEdgeStyle;rounded=0;orthogonalLoop=1;jettySize=auto;html=1;" parent="0l53LQ4JQti2SCicIk5T-87" source="0l53LQ4JQti2SCicIk5T-45" target="0l53LQ4JQti2SCicIk5T-47" edge="1">
          <mxGeometry relative="1" as="geometry" />
        </mxCell>
        <mxCell id="0l53LQ4JQti2SCicIk5T-48" value="/api/{user_Id}" style="rounded=1;whiteSpace=wrap;html=1;" parent="0l53LQ4JQti2SCicIk5T-87" vertex="1">
          <mxGeometry x="499" y="779" width="100" height="50" as="geometry" />
        </mxCell>
        <mxCell id="0l53LQ4JQti2SCicIk5T-63" value="" style="edgeStyle=orthogonalEdgeStyle;rounded=0;orthogonalLoop=1;jettySize=auto;html=1;" parent="0l53LQ4JQti2SCicIk5T-87" source="0l53LQ4JQti2SCicIk5T-46" target="0l53LQ4JQti2SCicIk5T-48" edge="1">
          <mxGeometry relative="1" as="geometry" />
        </mxCell>
        <mxCell id="0l53LQ4JQti2SCicIk5T-49" value="DeleteUser" style="rounded=1;whiteSpace=wrap;html=1;" parent="0l53LQ4JQti2SCicIk5T-87" vertex="1">
          <mxGeometry x="642" y="779" width="100" height="50" as="geometry" />
        </mxCell>
        <mxCell id="0l53LQ4JQti2SCicIk5T-64" value="" style="edgeStyle=orthogonalEdgeStyle;rounded=0;orthogonalLoop=1;jettySize=auto;html=1;" parent="0l53LQ4JQti2SCicIk5T-87" source="0l53LQ4JQti2SCicIk5T-48" target="0l53LQ4JQti2SCicIk5T-49" edge="1">
          <mxGeometry relative="1" as="geometry" />
        </mxCell>
        <mxCell id="0l53LQ4JQti2SCicIk5T-50" value="UpdateUser" style="rounded=1;whiteSpace=wrap;html=1;" parent="0l53LQ4JQti2SCicIk5T-87" vertex="1">
          <mxGeometry x="642" y="699" width="100" height="50" as="geometry" />
        </mxCell>
        <mxCell id="0l53LQ4JQti2SCicIk5T-62" value="" style="edgeStyle=orthogonalEdgeStyle;rounded=0;orthogonalLoop=1;jettySize=auto;html=1;" parent="0l53LQ4JQti2SCicIk5T-87" source="0l53LQ4JQti2SCicIk5T-47" target="0l53LQ4JQti2SCicIk5T-50" edge="1">
          <mxGeometry relative="1" as="geometry" />
        </mxCell>
        <mxCell id="0l53LQ4JQti2SCicIk5T-51" value="&lt;b&gt;ENDPOINTS&lt;/b&gt;" style="text;html=1;strokeColor=none;fillColor=none;align=center;verticalAlign=middle;whiteSpace=wrap;rounded=0;" parent="0l53LQ4JQti2SCicIk5T-87" vertex="1">
          <mxGeometry x="518" y="394" width="60" height="30" as="geometry" />
        </mxCell>
        <mxCell id="0l53LQ4JQti2SCicIk5T-52" value="&lt;b&gt;HANDLER FUNCTION&lt;/b&gt;" style="text;html=1;strokeColor=none;fillColor=none;align=center;verticalAlign=middle;whiteSpace=wrap;rounded=0;" parent="0l53LQ4JQti2SCicIk5T-87" vertex="1">
          <mxGeometry x="661" y="387" width="60" height="30" as="geometry" />
        </mxCell>
        <mxCell id="0l53LQ4JQti2SCicIk5T-86" value="" style="group" parent="0l53LQ4JQti2SCicIk5T-87" vertex="1" connectable="0">
          <mxGeometry y="349" width="290" height="396" as="geometry" />
        </mxCell>
        <mxCell id="0l53LQ4JQti2SCicIk5T-68" value="&lt;h1&gt;&lt;font style=&quot;font-size: 20px;&quot;&gt;DATABASE UML DIAGRAM&lt;/font&gt;&lt;/h1&gt;" style="text;html=1;strokeColor=none;fillColor=none;spacing=5;spacingTop=-20;whiteSpace=wrap;overflow=hidden;rounded=0;align=center;" parent="0l53LQ4JQti2SCicIk5T-86" vertex="1">
          <mxGeometry x="39" width="180" height="71" as="geometry" />
        </mxCell>
        <mxCell id="0l53LQ4JQti2SCicIk5T-70" value="" style="rounded=0;whiteSpace=wrap;html=1;" parent="0l53LQ4JQti2SCicIk5T-86" vertex="1">
          <mxGeometry y="71" width="290" height="325" as="geometry" />
        </mxCell>
        <mxCell id="0l53LQ4JQti2SCicIk5T-71" value="&lt;b&gt;MYSQL&lt;/b&gt;" style="text;html=1;strokeColor=none;fillColor=none;align=center;verticalAlign=middle;whiteSpace=wrap;rounded=0;" parent="0l53LQ4JQti2SCicIk5T-86" vertex="1">
          <mxGeometry x="80" y="70" width="110" height="40" as="geometry" />
        </mxCell>
        <mxCell id="0l53LQ4JQti2SCicIk5T-73" value="" style="endArrow=none;html=1;rounded=0;entryX=0.996;entryY=0.095;entryDx=0;entryDy=0;entryPerimeter=0;" parent="0l53LQ4JQti2SCicIk5T-86" target="0l53LQ4JQti2SCicIk5T-70" edge="1">
          <mxGeometry width="50" height="50" relative="1" as="geometry">
            <mxPoint y="101" as="sourcePoint" />
            <mxPoint x="50" y="51" as="targetPoint" />
          </mxGeometry>
        </mxCell>
        <mxCell id="0l53LQ4JQti2SCicIk5T-75" value="" style="endArrow=none;html=1;rounded=0;entryX=1;entryY=0.369;entryDx=0;entryDy=0;entryPerimeter=0;" parent="0l53LQ4JQti2SCicIk5T-86" target="0l53LQ4JQti2SCicIk5T-70" edge="1">
          <mxGeometry width="50" height="50" relative="1" as="geometry">
            <mxPoint y="191" as="sourcePoint" />
            <mxPoint x="50" y="141" as="targetPoint" />
          </mxGeometry>
        </mxCell>
        <mxCell id="0l53LQ4JQti2SCicIk5T-78" value="&lt;font style=&quot;font-size: 16px;&quot;&gt;-&amp;nbsp; Name&lt;span style=&quot;white-space: pre;&quot;&gt;&#x9;&lt;span style=&quot;white-space: pre;&quot;&gt;&#x9;&lt;/span&gt;S&lt;/span&gt;tring&lt;/font&gt;" style="text;html=1;strokeColor=none;fillColor=none;align=left;verticalAlign=middle;whiteSpace=wrap;rounded=0;" parent="0l53LQ4JQti2SCicIk5T-86" vertex="1">
          <mxGeometry x="10" y="110" width="260" height="30" as="geometry" />
        </mxCell>
        <mxCell id="0l53LQ4JQti2SCicIk5T-79" value="&lt;font style=&quot;font-size: 16px;&quot;&gt;-&amp;nbsp; Email&lt;span style=&quot;white-space: pre;&quot;&gt;&#x9;&lt;span style=&quot;white-space: pre;&quot;&gt;&#x9;&lt;/span&gt;S&lt;/span&gt;tring&lt;/font&gt;" style="text;html=1;strokeColor=none;fillColor=none;align=left;verticalAlign=middle;whiteSpace=wrap;rounded=0;" parent="0l53LQ4JQti2SCicIk5T-86" vertex="1">
          <mxGeometry x="10" y="131" width="260" height="30" as="geometry" />
        </mxCell>
        <mxCell id="0l53LQ4JQti2SCicIk5T-80" value="&lt;font style=&quot;font-size: 16px;&quot;&gt;-&amp;nbsp; Country&lt;span style=&quot;white-space: pre;&quot;&gt;&#x9;&lt;span style=&quot;white-space: pre;&quot;&gt;&#x9;&lt;/span&gt;S&lt;/span&gt;tring&lt;/font&gt;" style="text;html=1;strokeColor=none;fillColor=none;align=left;verticalAlign=middle;whiteSpace=wrap;rounded=0;" parent="0l53LQ4JQti2SCicIk5T-86" vertex="1">
          <mxGeometry x="12" y="156" width="260" height="30" as="geometry" />
        </mxCell>
        <mxCell id="0l53LQ4JQti2SCicIk5T-81" value="&lt;font style=&quot;font-size: 16px;&quot;&gt;+ ( *User)&amp;nbsp; &amp;nbsp; CreateUser()&amp;nbsp; &amp;nbsp;&amp;nbsp;*User&lt;/font&gt;" style="text;html=1;strokeColor=none;fillColor=none;align=left;verticalAlign=middle;whiteSpace=wrap;rounded=0;" parent="0l53LQ4JQti2SCicIk5T-86" vertex="1">
          <mxGeometry x="10" y="198" width="260" height="30" as="geometry" />
        </mxCell>
        <mxCell id="0l53LQ4JQti2SCicIk5T-82" value="&lt;font style=&quot;font-size: 16px;&quot;&gt;+&amp;nbsp;&amp;nbsp;GetAllUser()&amp;nbsp; &amp;nbsp; [ ] User&lt;/font&gt;" style="text;html=1;strokeColor=none;fillColor=none;align=left;verticalAlign=middle;whiteSpace=wrap;rounded=0;" parent="0l53LQ4JQti2SCicIk5T-86" vertex="1">
          <mxGeometry x="11" y="240" width="260" height="30" as="geometry" />
        </mxCell>
        <mxCell id="0l53LQ4JQti2SCicIk5T-83" value="&lt;font style=&quot;font-size: 16px;&quot;&gt;+ GetUserById(int64) (User, *gorm.DB&lt;/font&gt;" style="text;html=1;strokeColor=none;fillColor=none;align=left;verticalAlign=middle;whiteSpace=wrap;rounded=0;" parent="0l53LQ4JQti2SCicIk5T-86" vertex="1">
          <mxGeometry x="9" y="283" width="279" height="30" as="geometry" />
        </mxCell>
        <mxCell id="0l53LQ4JQti2SCicIk5T-85" value="&lt;font style=&quot;font-size: 16px;&quot;&gt;+ DeleteUser(int64)&amp;nbsp; &amp;nbsp;User&lt;/font&gt;" style="text;html=1;strokeColor=none;fillColor=none;align=left;verticalAlign=middle;whiteSpace=wrap;rounded=0;" parent="0l53LQ4JQti2SCicIk5T-86" vertex="1">
          <mxGeometry x="10" y="329" width="279" height="31" as="geometry" />
        </mxCell>
      </root>
    </mxGraphModel>
  </diagram>
</mxfile>
